<svg width="17" height="14" viewBox="0 0 17 14" fill="none" xmlns="http://www.w3.org/2000/svg">
<path d="M16.0944 3.35703L16.6652 3.50997L16.8171 2.93977L16.2474 2.78624L16.0944 3.35703ZM0.46602 11.6986C0.330465 11.7769 0.231552 11.9058 0.19104 12.057C0.150528 12.2082 0.171737 12.3693 0.249999 12.5048C0.328262 12.6404 0.457169 12.7393 0.60836 12.7798C0.759552 12.8203 0.920644 12.7991 1.0562 12.7208L0.46602 11.6986ZM14.073 13.1844L16.6652 3.50997L15.5236 3.20408L12.9314 12.8785L14.073 13.1844ZM16.2474 2.78624L6.57296 0.19399L6.26708 1.33557L15.9415 3.92782L16.2474 2.78624ZM15.7993 2.84592L0.46602 11.6986L1.0562 12.7208L16.3895 3.86814L15.7993 2.84592Z" fill="#2E3192"/>
</svg>
